<?xml version="1.0" encoding="utf-8"?>
<!-- Generator: Adobe Illustrator 19.2.1, SVG Export Plug-In . SVG Version: 6.00 Build 0)  -->
<svg version="1.1" id="Capa_1" xmlns="http://www.w3.org/2000/svg" xmlns:xlink="http://www.w3.org/1999/xlink" x="0px" y="0px"
	 viewBox="0 0 314.9 49.2" style="enable-background:new 0 0 314.9 49.2;" xml:space="preserve">
<style type="text/css">
	.st0{fill:#333C4E;}
</style>
<g>
	<path class="st0" d="M41.9,4v41.2H34l-20.5-25v25H4.1V4H12l20.5,25V4H41.9z"/>
	<path class="st0" d="M83.6,37.6v7.7h-32V4h31.1v7.7H61.1v8.9h19.1V28H61.1v9.5L83.6,37.6L83.6,37.6z"/>
	<path class="st0" d="M99.4,43.2c-3.4-1.8-6.1-4.4-8.1-7.6c-1.9-3.2-2.9-6.9-2.9-10.9s1-7.7,2.9-10.9s4.6-5.8,8.1-7.6
		c3.4-1.8,7.3-2.8,11.6-2.8c4.3,0,8.1,0.9,11.5,2.8c3.4,1.8,6.1,4.4,8.1,7.6s2.9,6.9,2.9,10.9s-1,7.7-2.9,10.9
		c-2,3.2-4.7,5.8-8.1,7.6S115.2,46,111,46C106.7,45.9,102.9,45,99.4,43.2z M117.6,36.1c2-1.1,3.5-2.7,4.6-4.7s1.7-4.3,1.7-6.8
		c0-2.6-0.6-4.8-1.7-6.8s-2.7-3.6-4.6-4.7c-2-1.1-4.2-1.7-6.6-1.7s-4.6,0.6-6.6,1.7s-3.5,2.7-4.6,4.7s-1.7,4.3-1.7,6.8
		c0,2.6,0.6,4.8,1.7,6.8s2.7,3.6,4.6,4.7c2,1.1,4.2,1.7,6.6,1.7S115.6,37.2,117.6,36.1z"/>
	<path class="st0" d="M140.7,4h9.5v33.4h20.7v7.8h-30.2V4z"/>
	<path class="st0" d="M203.8,36.4h-19.1l-3.7,8.8h-9.8L189.6,4h9.4l18.4,41.2h-10L203.8,36.4z M200.8,29.2l-6.5-15.8l-6.5,15.8
		H200.8z"/>
	<path class="st0" d="M259.5,4v41.2h-7.8l-20.5-25v25h-9.4V4h7.9l20.5,25V4H259.5z"/>
	<path class="st0" d="M269.3,4H288c4.5,0,8.4,0.9,11.9,2.6c3.4,1.7,6.1,4.1,8,7.2s2.9,6.7,2.9,10.8s-1,7.7-2.9,10.8s-4.6,5.5-8,7.2
		s-7.4,2.6-11.9,2.6h-18.7V4z M287.5,37.4c4.1,0,7.4-1.1,9.9-3.4s3.7-5.4,3.7-9.3s-1.2-7-3.7-9.3s-5.7-3.4-9.9-3.4h-8.7v25.6h8.7
		V37.4z"/>
</g>
</svg>
